<?xml version="1.0" encoding="utf-8"?>
<!-- Generator: Adobe Illustrator 21.0.0, SVG Export Plug-In . SVG Version: 6.00 Build 0)  -->
<svg version="1.1" id="Layer_1" xmlns="http://www.w3.org/2000/svg" xmlns:xlink="http://www.w3.org/1999/xlink" x="0px" y="0px"
	 viewBox="0 0 794.2 225.1" style="enable-background:new 0 0 794.2 225.1;" xml:space="preserve">
<style type="text/css">
	.st0{fill:#1686D6;}
	.st1{fill:#877F7F;}
	.st2{fill-rule:evenodd;clip-rule:evenodd;fill:#1686D6;}
	.st3{fill-rule:evenodd;clip-rule:evenodd;fill:#877F7F;}
</style>
<g>
	<path class="st0" d="M14.3,125h22.2c5.9,0,14.4,3.6,14.4,10.5c0,7.2-8.4,9.2-14.4,9.2H14.3V125L14.3,125z M14.3,94.5h22.2
		c9.2,0,12.1,6,12.1,9.5c0,4.4-3,8.3-12.1,8.3H14.3V94.5L14.3,94.5z M36.4,81.4c-12.2,0-24.3,0-36.4,0v76.9c12.2,0,24.2,0,36.4,0
		c15.9,0,28.7-5.5,28.7-22.6c0-4.8-3.3-14.4-12.3-17.1c7.1-3.2,10-8.9,10-14.9C62.8,88.2,51.5,81.4,36.4,81.4L36.4,81.4z M75.3,81.4
		v76.9h54v-13.4H89.8V81.4H75.3L75.3,81.4z M192.5,81.6v44c0,13.2-6.8,21.2-18.8,21.2c-12,0-19.8-7.3-19.8-21.2v-44h-14.4v44
		c0,23.1,15.7,34.3,34.1,34.3c19.3,0,33.2-11.6,33.2-34.3v-44H192.5L192.5,81.6z M278.2,144h-43.1v-17.3h41.6v-13.5h-41.6h-14.4
		v45.1h57.5V144z"/>
	<polygon class="st1" points="220.8,81.4 220.8,95.4 235.1,95.4 278.2,95.4 278.2,81.4 	"/>
	<path class="st1" d="M566.4,158.2h14.5V94.5h24.3V81.4c-22.3,0-41,0-63.2,0v13.2h24.3V158.2L566.4,158.2z M359.4,94.1
		c-5.8-11.8-18.2-15.2-30.2-15.2c-14.1,0.1-29.7,6.6-29.7,22.4c0,17.2,14.5,21.4,30.2,23.2c10.2,1.1,17.8,4.1,17.8,11.3
		c0,8.3-8.6,11.5-17.7,11.5c-9.3,0-18.2-3.7-21.6-12.2l-12.1,6.3c5.7,14,17.8,18.9,33.5,18.9c17.1,0,32.2-7.4,32.2-24.5
		c0-18.3-14.9-22.5-30.9-24.5c-9.2-1.1-17.1-3-17.1-9.6c0-5.7,5.2-10.2,15.9-10.2c8.3,0,15.6,4.2,18.2,8.6L359.4,94.1L359.4,94.1z
		 M439.7,158.2v-41.8V94.5V81.6h-14.4v32.4h-37.7V81.6h-14.5v76.7h14.5v-30.9h37.7v30.9H439.7L439.7,158.2z M453.4,81.4h14.4v76.9
		h-14.4V81.4L453.4,81.4z M495.8,158.2v-28.4h38.5v-13.4h-38.5h-14.5v41.8H495.8z"/>
	<polygon class="st0" points="495.8,94.5 536.5,94.5 536.5,81.6 495.8,81.6 481.4,81.6 481.4,94.5 	"/>
	<path class="st2" d="M652.4,158.2V81.4H638v76.9H652.4L652.4,158.2z M724.4,63.2h23.6v20.5v2.4v90.2H704h-23.5H666h-28h-18.1V63.2
		h102.2H724.4L724.4,63.2z M666,158.2h14.5v-10.5v-12.1h21.7c37.6,0,37.5-54.3,0-54.3c-12.1-0.1-24.1,0-36.2,0V158.2L666,158.2z
		 M680.5,95.2v27.2h21.7c18.5,0,18.4-27.2,0-27.2H680.5z"/>
	<polygon class="st3" points="729.6,32.1 776,32.1 776,78.6 753.3,78.6 753.3,58 729.6,58 	"/>
	<polygon class="st2" points="701,2.7 734.6,2.7 734.6,27 724.4,27 724.4,36.2 701,36.2 	"/>
	<rect x="773.6" class="st2" width="20.6" height="20.6"/>
	<path class="st1" d="M0,210.4h2.6c0.1,1.7,0.5,3.1,1.5,4.1c0.9,1,2.1,1.5,3.6,1.5c1.6,0,2.9-0.5,3.8-1.5c0.9-1,1.4-2.4,1.4-4.1
		c0-2.5-1.9-4.4-5.8-5.7c-0.3-0.1-0.5-0.2-0.7-0.2c-2-0.7-3.5-1.6-4.4-2.7c-0.9-1.1-1.3-2.5-1.3-4.2c0-2.2,0.7-4,2.1-5.4
		c1.4-1.4,3.2-2.1,5.4-2.1c2.1,0,3.7,0.6,5,1.9c1.2,1.3,1.9,3.1,2,5.4h-2.6c-0.1-1.5-0.6-2.7-1.4-3.5c-0.8-0.8-1.8-1.2-3.1-1.2
		c-1.4,0-2.5,0.5-3.4,1.3c-0.9,0.9-1.3,2-1.3,3.4c0,0.7,0.1,1.3,0.4,1.9c0.3,0.5,0.7,1,1.3,1.4c0.6,0.4,1.7,0.9,3.4,1.4
		c0.9,0.3,1.7,0.6,2.2,0.8c1.8,0.7,3.1,1.6,3.9,2.7c0.8,1.1,1.2,2.5,1.2,4.3c0,2.7-0.7,4.9-2.2,6.5c-1.5,1.6-3.4,2.5-5.9,2.5
		c-2.3,0-4.1-0.8-5.5-2.3C0.8,215,0,212.9,0,210.4L0,210.4z M38.4,207.8c0,2.4,0.8,4.4,2.3,6.1c1.5,1.6,3.5,2.4,5.7,2.4
		c2.2,0,4.1-0.8,5.7-2.4c1.5-1.6,2.3-3.7,2.3-6.1c0-2.5-0.8-4.5-2.3-6.1c-1.5-1.6-3.5-2.4-5.9-2.4c-2.1,0-4,0.8-5.5,2.5
		C39.1,203.4,38.4,205.4,38.4,207.8L38.4,207.8z M35.5,207.9c0-3.1,1.1-5.7,3.2-7.9c2.1-2.2,4.6-3.3,7.5-3.3c3,0,5.6,1.1,7.8,3.2
		c2.1,2.1,3.2,4.7,3.2,7.7c0,3.1-1,5.8-3.1,8c-2.1,2.2-4.6,3.3-7.6,3.3c-3,0-5.6-1.1-7.7-3.3C36.6,213.5,35.5,210.9,35.5,207.9
		L35.5,207.9z M81.6,218.3H79v-18.6h-2.8v-2.3h2.7v-0.6c0-2.2,0.6-3.9,1.7-4.9c1.1-1.1,2.9-1.6,5.2-1.6H86v2.4c-1.6,0-2.8,0.3-3.4,1
		c-0.7,0.6-1,1.7-1,3.2v0.6H86v2.3h-4.4V218.3L81.6,218.3z M107.9,218.3V200h-4v-2.7h4v-6.8h2.7v6.8h4v2.7h-4v18.3H107.9
		L107.9,218.3z M151.4,213.1l5.1-15.7h2.9l-7.1,21h-1.8l-4.9-16l-4.9,16H139l-7.1-21h2.8l5.1,15.7l4.8-15.7h1.9L151.4,213.1
		L151.4,213.1z M196.5,207.7c0-2.2-0.8-4.2-2.4-5.8c-1.6-1.7-3.4-2.5-5.5-2.5c-2.3,0-4.2,0.8-5.8,2.5c-1.6,1.7-2.4,3.7-2.4,6.2
		c0,2.3,0.8,4.3,2.4,5.9c1.6,1.6,3.5,2.4,5.7,2.4c2.1,0,4-0.8,5.6-2.5C195.7,212.1,196.5,210.1,196.5,207.7L196.5,207.7z M196.5,215
		c-0.8,1.2-2,2.2-3.4,2.8c-1.4,0.7-3,1-4.6,1c-3.1,0-5.6-1.1-7.7-3.2c-2.1-2.1-3.1-4.7-3.1-7.8c0-3.1,1-5.8,3.1-7.9
		c2.1-2.1,4.7-3.2,7.9-3.2c1.6,0,3.1,0.3,4.4,1c1.4,0.7,2.5,1.6,3.4,2.8v-3.4h2.6v21h-2.6V215L196.5,215z M223.5,218.3h-2.7v-21h2.5
		v2.4c0.7-0.9,1.4-1.6,2.2-2c0.8-0.4,1.7-0.7,2.7-0.7l0,2.9c-1.7,0.2-2.9,0.7-3.6,1.5c-0.7,0.9-1.1,2.3-1.1,4.2V218.3L223.5,218.3z
		 M268.6,208.7h-18.9c0.2,2.3,1,4.1,2.5,5.5c1.5,1.4,3.3,2.1,5.6,2.1c1.6,0,3-0.4,4.3-1.2c1.3-0.8,2.2-2,2.9-3.4h3.1
		c-1,2.3-2.3,4.1-4.1,5.3c-1.8,1.2-3.8,1.9-6.1,1.9c-3.1,0-5.6-1.1-7.8-3.3c-2.1-2.2-3.2-4.8-3.2-7.8c0-3.2,1-5.8,3.1-7.9
		c2.1-2.1,4.7-3.1,7.9-3.1c3.2,0,5.7,1.1,7.7,3.3c2,2.2,3,5,3,8.5V208.7L268.6,208.7z M265.6,206.4c-0.5-2.4-1.4-4.1-2.8-5.3
		c-1.4-1.2-3.1-1.8-5.3-1.8c-2,0-3.8,0.6-5.2,1.9c-1.4,1.3-2.3,3-2.6,5.2H265.6L265.6,206.4z M303.1,193.3v10.6h4
		c2.2,0,3.9-0.4,5-1.3c1.1-0.9,1.6-2.2,1.6-4c0-1.9-0.5-3.2-1.6-4.1c-1.1-0.9-2.8-1.3-5.2-1.3H303.1L303.1,193.3z M300.3,190.5h5.9
		c1.7,0,3,0.1,4.1,0.3c1,0.2,1.9,0.5,2.5,0.9c1.2,0.7,2.2,1.7,2.8,2.9c0.7,1.2,1,2.5,1,4c0,1.4-0.3,2.7-0.9,3.9
		c-0.6,1.2-1.4,2.1-2.5,2.8c-0.7,0.5-1.6,0.9-2.6,1.1c-1,0.2-2.3,0.3-3.9,0.3h-3.6v11.7h-2.7V190.5L300.3,190.5z M353.4,207.7
		c0-2.2-0.8-4.2-2.4-5.8c-1.6-1.7-3.4-2.5-5.5-2.5c-2.3,0-4.2,0.8-5.8,2.5c-1.6,1.7-2.4,3.7-2.4,6.2c0,2.3,0.8,4.3,2.4,5.9
		c1.6,1.6,3.5,2.4,5.7,2.4c2.1,0,4-0.8,5.6-2.5C352.6,212.1,353.4,210.1,353.4,207.7L353.4,207.7z M353.4,215
		c-0.8,1.2-2,2.2-3.4,2.8c-1.4,0.7-3,1-4.6,1c-3.1,0-5.6-1.1-7.7-3.2c-2.1-2.1-3.1-4.7-3.1-7.8c0-3.1,1-5.8,3.1-7.9
		c2.1-2.1,4.7-3.2,7.9-3.2c1.6,0,3.1,0.3,4.4,1c1.3,0.7,2.5,1.6,3.4,2.8v-3.4h2.6v21h-2.6V215L353.4,215z M379.5,218.3V200h-4v-2.7
		h4v-6.8h2.7v6.8h4v2.7h-4v18.3H379.5L379.5,218.3z M426.4,208.7h-18.9c0.2,2.3,1,4.1,2.5,5.5c1.5,1.4,3.3,2.1,5.6,2.1
		c1.6,0,3-0.4,4.3-1.2c1.3-0.8,2.2-2,2.9-3.4h3.1c-1,2.3-2.3,4.1-4.1,5.3c-1.8,1.2-3.8,1.9-6.1,1.9c-3.1,0-5.6-1.1-7.8-3.3
		c-2.1-2.2-3.2-4.8-3.2-7.8c0-3.2,1-5.8,3.1-7.9c2.1-2.1,4.7-3.1,7.9-3.1c3.2,0,5.7,1.1,7.7,3.3c2,2.2,3,5,3,8.5V208.7L426.4,208.7z
		 M423.4,206.4c-0.5-2.4-1.4-4.1-2.8-5.3c-1.4-1.2-3.1-1.8-5.3-1.8c-2,0-3.8,0.6-5.2,1.9c-1.4,1.3-2.3,3-2.6,5.2H423.4L423.4,206.4z
		 M447,197.3h2.6v2.4c0.8-1,1.8-1.7,2.9-2.1c1.1-0.5,2.3-0.7,3.7-0.7c1.5,0,2.9,0.3,4.1,0.9c1.2,0.6,2.2,1.4,2.9,2.5
		c0.5,0.7,0.8,1.6,1,2.6c0.2,1,0.3,2.5,0.3,4.5v11h-2.7v-11.7c0-2.5-0.5-4.3-1.4-5.4c-0.9-1.1-2.5-1.7-4.6-1.7
		c-1.2,0-2.3,0.3-3.2,0.7c-0.9,0.5-1.6,1.2-2.2,2.1c-0.3,0.6-0.6,1.2-0.7,2c-0.1,0.7-0.2,2-0.2,3.8v10.2H447V197.3L447,197.3z
		 M488.1,218.3V200h-4v-2.7h4v-6.8h2.7v6.8h4v2.7h-4v18.3H488.1L488.1,218.3z M528.6,203h11.7v2.8h-11.7v9.9h11.7v2.7h-14.4v-27.8
		h14.4v2.7h-11.7V203L528.6,203z M563.6,197.3l4.9,7.9l5.2-7.9h3.1l-6.8,10.1l6.8,10.9h-3.1l-5.4-8.8l-5.6,8.8h-3l7.1-10.9
		l-6.3-10.1H563.6L563.6,197.3z M596,197.3h2.7v3.4c0.8-1.2,1.9-2.1,3.3-2.8c1.4-0.7,2.9-1.1,4.5-1.1c3.2,0,5.8,1.1,7.9,3.2
		c2.1,2.1,3.1,4.7,3.1,7.9c0,3.1-1,5.7-3.1,7.8c-2.1,2.1-4.6,3.2-7.7,3.2c-1.7,0-3.2-0.3-4.6-1c-1.4-0.7-2.5-1.6-3.4-2.9v1.5v3.1
		v5.5H596V197.3L596,197.3z M598.7,207.7c0,2.4,0.8,4.4,2.4,6.1c1.6,1.7,3.4,2.5,5.6,2.5c2.2,0,4.1-0.8,5.7-2.4
		c1.6-1.6,2.4-3.6,2.4-5.9c0-2.5-0.8-4.5-2.4-6.2c-1.6-1.7-3.5-2.5-5.8-2.5c-2.1,0-3.9,0.8-5.5,2.5
		C599.5,203.5,598.7,205.5,598.7,207.7L598.7,207.7z M658.8,208.7h-18.9c0.2,2.3,1,4.1,2.5,5.5c1.5,1.4,3.3,2.1,5.6,2.1
		c1.6,0,3-0.4,4.3-1.2c1.3-0.8,2.2-2,2.9-3.4h3.1c-1,2.3-2.3,4.1-4.1,5.3c-1.8,1.2-3.8,1.9-6.1,1.9c-3.1,0-5.6-1.1-7.8-3.3
		c-2.1-2.2-3.2-4.8-3.2-7.8c0-3.2,1-5.8,3.1-7.9c2.1-2.1,4.7-3.1,7.9-3.1c3.2,0,5.7,1.1,7.7,3.3c2,2.2,3,5,3,8.5V208.7L658.8,208.7z
		 M655.8,206.4c-0.5-2.4-1.4-4.1-2.8-5.3c-1.4-1.2-3.1-1.8-5.3-1.8c-2,0-3.8,0.6-5.2,1.9c-1.4,1.3-2.3,3-2.6,5.2H655.8L655.8,206.4z
		 M682,218.3h-2.7v-21h2.5v2.4c0.7-0.9,1.4-1.6,2.2-2c0.8-0.4,1.7-0.7,2.7-0.7l0,2.9c-1.7,0.2-2.9,0.7-3.6,1.5
		c-0.7,0.9-1.1,2.3-1.1,4.2V218.3L682,218.3z M708.4,218.3V200h-4v-2.7h4v-6.8h2.7v6.8h4v2.7h-4v18.3H708.4L708.4,218.3z
		 M733.4,211.7h2.8v0.1c0,1.3,0.4,2.4,1.1,3.3c0.7,0.9,1.7,1.3,2.8,1.3c1.1,0,1.9-0.3,2.6-1c0.7-0.7,1-1.5,1-2.5
		c0-1-0.3-1.8-0.8-2.4c-0.6-0.6-1.6-1.2-3-1.7c-2.3-0.8-3.8-1.7-4.6-2.5c-0.7-0.9-1.1-2-1.1-3.5c0-1.6,0.6-3,1.8-4.2
		c1.2-1.1,2.6-1.7,4.3-1.7c1.8,0,3.2,0.5,4.3,1.5c1.1,1,1.6,2.4,1.7,4.3h-2.9c-0.1-1-0.4-1.8-0.9-2.3c-0.6-0.5-1.3-0.8-2.3-0.8
		c-0.9,0-1.6,0.3-2.2,0.9c-0.6,0.6-0.9,1.3-0.9,2.2c0,0.6,0.1,1.1,0.4,1.6c0.2,0.4,0.6,0.8,1.2,1.2c0.5,0.3,1.3,0.6,2.2,0.9
		c1,0.3,1.6,0.5,2,0.6c1.3,0.6,2.3,1.3,2.9,2.2c0.6,0.9,0.9,2.1,0.9,3.6c0,1.8-0.6,3.3-1.9,4.5c-1.3,1.2-2.9,1.8-4.8,1.8
		c-2,0-3.6-0.6-4.8-1.9C734,215.7,733.4,213.9,733.4,211.7z"/>
	<path class="st2" d="M767.9,86.3c1.5,0,2.9,0.3,4.3,0.8c1.4,0.6,2.6,1.4,3.6,2.4c1,1,1.8,2.2,2.4,3.6c0.6,1.4,0.8,2.8,0.8,4.3
		c0,1.5-0.3,2.9-0.8,4.3c-0.5,1.3-1.4,2.5-2.4,3.5c-1.1,1.1-2.3,1.9-3.7,2.5c-1.4,0.6-2.8,0.9-4.2,0.9c-1.5,0-2.9-0.3-4.2-0.8
		c-1.4-0.6-2.6-1.4-3.6-2.4c-1-1-1.9-2.2-2.4-3.6c-0.6-1.4-0.8-2.8-0.8-4.2c0-1.5,0.3-2.9,0.9-4.2c0.6-1.4,1.4-2.6,2.5-3.7
		c1-1,2.2-1.8,3.5-2.4C765,86.5,766.4,86.3,767.9,86.3L767.9,86.3z M776.8,97.4c0-1.2-0.2-2.4-0.7-3.5c-0.4-1.1-1.1-2-1.9-2.9
		c-0.8-0.8-1.8-1.5-2.9-1.9c-1.1-0.5-2.3-0.7-3.5-0.7c-1.2,0-2.3,0.2-3.4,0.7c-1.1,0.4-2,1.1-2.8,1.9c-0.8,0.9-1.5,1.8-2,3
		c-0.5,1.1-0.7,2.2-0.7,3.4c0,1.2,0.2,2.3,0.7,3.4c0.5,1.1,1.1,2.1,1.9,2.9c0.8,0.8,1.8,1.5,2.9,1.9c1.1,0.5,2.2,0.7,3.4,0.7
		c1.2,0,2.3-0.2,3.4-0.7c1.1-0.5,2.1-1.1,3-2c0.8-0.8,1.4-1.7,1.9-2.8C776.6,99.7,776.8,98.6,776.8,97.4L776.8,97.4z M771.1,98
		c0.7-0.2,1.2-0.5,1.7-1.1c0.6-0.7,0.9-1.6,0.9-2.5c0-1.2-0.4-2.3-1.5-3c-1.1-0.8-2.8-0.9-4.1-0.9h-5v13.2h2.9v-5.4h2l2.6,5.4h3.2
		L771.1,98L771.1,98z M766.1,92.9v3.3h1.8c0.7,0,1.9,0,2.4-0.4c0.4-0.3,0.5-0.7,0.5-1.2c0-0.5-0.1-1-0.6-1.3
		c-0.6-0.4-1.7-0.4-2.4-0.4H766.1z"/>
</g>
</svg>
