<svg xmlns="http://www.w3.org/2000/svg" viewBox="673.531 -4688.054 58.937 66.798">
  <defs>
    <style>
      .cls-1 {
        fill: #1686d6;
      }
    </style>
  </defs>
  <g id="Group_3823" data-name="Group 3823" transform="translate(673.531 -4688.009)">
    <path id="Path_461" data-name="Path 461" class="cls-1" d="M58.937,204.9a5.6,5.6,0,0,0-5.961-5.934c-7.836.013-15.672,0-23.508,0-7.943,0-15.886-.013-23.843,0A5.559,5.559,0,0,0,0,204.627v28.732a5.582,5.582,0,0,0,5.693,5.733q23.769,0,47.551,0a5.574,5.574,0,0,0,5.693-5.733Zm-19.168,4.568c3.335,2.1,3.335,7.622,0,9.711C36.434,217.018,36.434,211.472,39.769,209.463ZM18.873,229.8H11.64a1.591,1.591,0,1,1,.013-3.161q3.617-.02,7.233,0a1.6,1.6,0,1,1-.013,3.161Zm1.862-14.908a2.468,2.468,0,0,1-2.518,2.558c-1.956.04-3.925.04-5.88,0a2.409,2.409,0,0,1-2.451-2.478c-.027-1.406-.027-2.813,0-4.206a2.453,2.453,0,0,1,2.572-2.5c.964-.013,1.915,0,2.88,0,.938,0,1.875-.013,2.813,0a2.484,2.484,0,0,1,2.6,2.545C20.762,212.169,20.762,213.535,20.735,214.888ZM33.085,229.8c-1.179.013-2.371,0-3.55,0h0c-1.232,0-2.451.013-3.684,0-1.112-.013-1.768-.6-1.781-1.567s.643-1.581,1.755-1.594c2.438-.013,4.862-.013,7.3,0a1.567,1.567,0,0,1,1.755,1.594A1.588,1.588,0,0,1,33.085,229.8ZM31.3,217.821a6.034,6.034,0,0,1,.254-7.327,5.933,5.933,0,0,1,6.818-1.781,7.515,7.515,0,0,0,.04,11.238A6.028,6.028,0,0,1,31.3,217.821ZM47.364,229.8c-1.232.013-2.451,0-3.684,0s-2.451.013-3.684,0a1.607,1.607,0,0,1-1.755-1.54,1.588,1.588,0,0,1,1.741-1.621c2.451-.013,4.916-.013,7.367,0a1.584,1.584,0,1,1,.013,3.161Zm.643-11.667a5.887,5.887,0,0,1-6.778,1.822c3.362-4.608,3.362-6.778-.013-11.252a5.918,5.918,0,0,1,6.845,1.875A6.08,6.08,0,0,1,48.007,218.129Z" transform="translate(0 -172.345)"/>
    <path id="Path_462" data-name="Path 462" class="cls-1" d="M84.922,24.125a1.109,1.109,0,0,0,1.031-.549Q92.865,13.791,99.8,4.033c.134-.188.268-.4.415-.616-1.179-.83-2.29-1.634-3.429-2.438a4.747,4.747,0,0,0-6.965,1.179Q82.25,12.827,74.688,23.5c-.107.161-.214.335-.388.6h.723C78.318,24.112,81.627,24.1,84.922,24.125Z" transform="translate(-64.348)"/>
    <path id="Path_463" data-name="Path 463" class="cls-1" d="M218.13,70.644h18.82c.938,0,2.023.281,2.773-.107s1.192-1.447,1.741-2.224a4.715,4.715,0,0,0-1.112-6.791c-1.755-1.272-3.523-2.5-5.291-3.764-1.889-1.339-3.777-2.679-5.733-4.059-3.992,5.626-7.956,11.225-12.028,16.944Z" transform="translate(-188.193 -46.546)"/>
  </g>
</svg>
