<svg xmlns="http://www.w3.org/2000/svg" viewBox="-266.629 -4687.943 60.889 67.447">
  <defs>
    <style>
      .cls-1 {
        fill: #1686d6;
      }
    </style>
  </defs>
  <g id="Group_3820" data-name="Group 3820" transform="translate(-266.618 -4687.964)">
    <path id="Path_448" data-name="Path 448" class="cls-1" d="M59.962,227.438q-5.427-.613-10.868-1.2c-4.639-.511-9.278-1.007-13.9-1.517-5.048-.554-10.1-1.123-15.143-1.678-5.077-.554-10.139-1.109-15.216-1.678-1.488-.16-1.882.131-2.042,1.59Q2.2,228.54,1.58,234.12C1.055,238.9.515,243.675,0,248.46a1.53,1.53,0,0,0,1.517,1.882q8.293.941,16.587,1.853l19.125,2.1c6.083.671,12.167,1.328,18.25,2.028,2.042.233,2.29.656,2.6-2.2q.832-7.681,1.692-15.361c.379-3.384.744-6.754,1.094-9.978C60.925,227.745,60.765,227.54,59.962,227.438Zm-23.3,20.526c-5.106,4.391-12.021,3.064-15.186-2.9a14.377,14.377,0,0,1-1.517-7.309,12.4,12.4,0,0,1,5.193-9.716,9.267,9.267,0,0,1,12.984,1.634C42.442,234.776,41.742,243.6,36.665,247.964Z" transform="translate(0 -189.024)"/>
    <path id="Path_449" data-name="Path 449" class="cls-1" d="M23.95,117.06c-.35.117-.686.306-1.05.467,6.419.7,12.736,1.386,19.038,2.072.248-.963.423-1.853.715-2.7a8.537,8.537,0,0,1,13.29-4.318A11.818,11.818,0,0,1,61.019,121c.088.554.248.773.832.832,4.741.5,9.468,1.036,14.194,1.561,1.2.131,2.407.248,3.676.379-.1-.35-.175-.613-.263-.861L73.157,103c-.35-1.094-.5-1.167-1.561-.832q-9.563,2.976-19.1,5.967Q38.232,112.6,23.95,117.06Z" transform="translate(-19.569 -87.093)"/>
    <path id="Path_450" data-name="Path 450" class="cls-1" d="M7.387,31.791c-.029-.35-.015-.481-.044-.613-.321-1.721-.029-2.2,1.634-2.728q6.04-1.9,12.079-3.822c.219-.073.438-.16.671-.248-.1-.686-.2-1.328-.277-1.984a7.688,7.688,0,0,1,6.521-8.607,9.347,9.347,0,0,1,8.024,2.83,30.8,30.8,0,0,1,2.174,2.553c.117-.029.277-.073.438-.117,4.9-1.546,9.8-3.107,14.807-4.683a2.924,2.924,0,0,0-.277-.438Q48.125,7.283,43.084.63C42.5-.143,42.37-.157,41.567.455Q23.755,13.913,5.972,27.371a1.9,1.9,0,0,0-.627.6,1.2,1.2,0,0,0-.1.934C5.87,29.836,6.585,30.726,7.387,31.791Z" transform="translate(-4.436 0)"/>
    <path id="Path_451" data-name="Path 451" class="cls-1" d="M189.812,191.372a2.814,2.814,0,0,0-1.182,2.684c2.465.292,4.872.569,7.28.846.015-.073.015-.146.029-.219-.788-.117-1.561-.233-2.349-.336a5.733,5.733,0,0,1-1.43-.2c-.365-.131-.846-.481-.875-.773s.336-.759.642-.992A2.57,2.57,0,0,1,193.08,192c.613-.088,1.24-.1,1.9-.16,0-.525-.015-1.007,0-1.488.015-.423-.19-.554-.584-.525-.7.058-1.386.117-2.115.175-.146-.452-.306-.89-.467-1.4-.584.19-1.109.35-1.634.525a4.278,4.278,0,0,0,.131.481C190.716,190.365,190.57,190.861,189.812,191.372Z" transform="translate(-161.112 -161.069)"/>
    <path id="Path_452" data-name="Path 452" class="cls-1" d="M147.433,124.9c.89-.292,1.765-.569,2.67-.861-.817-.408-.992-.846-.569-1.415a2.609,2.609,0,0,1,.7-.627c.613-.336,1.24-.613,1.926-.948-.219-.525-.452-1.065-.715-1.692-.773.35-1.459.656-2.174.977-.277-.336-.54-.671-.832-1.036-.438.336-.817.613-1.225.919.146.19.219.35.336.467a.973.973,0,0,1,.073,1.488A2.484,2.484,0,0,0,147.433,124.9Z" transform="translate(-125.663 -101.878)"/>
    <path id="Path_453" data-name="Path 453" class="cls-1" d="M179.518,286.743a1.43,1.43,0,0,1,.861-.044c.948.233,1.882.525,2.859.817.233-.613.481-1.3.788-2.1-.948-.336-1.853-.656-2.772-.977.044-.511.073-1.05.117-1.648-.642-.073-1.255-.131-1.9-.19a7.158,7.158,0,0,0-.088.817c0,.7-.233,1.065-1.036,1.225a3.239,3.239,0,0,0-2.786,2.874,3.207,3.207,0,0,0,1.707,3.282c.686.452,1.444.8,2.174,1.2.934.511,1.313,1.109,1.109,1.751-.19.613-1.007.948-2,.817a1.163,1.163,0,0,1-.219-.044c-.977-.336-1.955-.656-3.005-1.021-.233.613-.5,1.328-.832,2.188,1.123.423,2.188.817,3.268,1.211-.044.554-.088,1.138-.146,1.751.671.073,1.24.131,1.882.2a11.2,11.2,0,0,0,.16-1.182c0-.613.2-.832.861-.948a3.552,3.552,0,0,0,3.151-3.457c.073-1.721-.977-2.655-2.3-3.414-.773-.452-1.576-.861-2.3-1.386a1.14,1.14,0,0,1-.394-.977A1.716,1.716,0,0,1,179.518,286.743Z" transform="translate(-149.053 -241.356)"/>
  </g>
</svg>
