<svg xmlns="http://www.w3.org/2000/svg" viewBox="208.923 -4685.064 48.426 63.64">
  <defs>
    <style>
      .cls-1 {
        fill: #1686d6;
      }
    </style>
  </defs>
  <path id="Path_457" data-name="Path 457" class="cls-1" d="M32.192,63.64h-.87C29.01,62.086,26.7,60.533,24.374,59a.58.58,0,0,0-.534,0c-2.324,1.541-4.636,3.1-6.948,4.636h-.87c-2.312-1.554-4.611-3.107-6.936-4.649a.693.693,0,0,0-.584.037c-2.312,1.529-4.6,3.07-6.9,4.6H.857A1.577,1.577,0,0,1-.1,61.987q.019-28.9.012-57.786A3.858,3.858,0,0,1,4.139,0H44.224a3.827,3.827,0,0,1,4.089,4.077q0,28.955.012,57.91a1.577,1.577,0,0,1-.957,1.641h-.746c-2.3-1.541-4.587-3.083-6.9-4.6a.651.651,0,0,0-.584-.037C36.8,60.533,34.5,62.086,32.192,63.64ZM25.369,30.552c1.33,0,2.548.012,3.766,0A3.841,3.841,0,0,0,33.025,26.7c.025-.783.012-1.579,0-2.362a3.811,3.811,0,0,0-4.015-3.965h-9.7c-1.106,0-1.566-.447-1.566-1.529,0-.721-.012-1.454,0-2.175a1.255,1.255,0,0,1,1.38-1.392c.994-.012,1.989,0,2.983,0h9.447A1.282,1.282,0,0,0,32.9,13.511a1.328,1.328,0,0,0-1.355-.8H26.077c-.224,0-.435-.025-.721-.037V11.585a1.256,1.256,0,0,0-1.243-1.4,1.236,1.236,0,0,0-1.268,1.367c-.012.36,0,.733,0,1.168-1.305,0-2.523-.012-3.741,0a3.749,3.749,0,0,0-3.878,3.443,18.085,18.085,0,0,0,0,3.281,3.714,3.714,0,0,0,3.816,3.431c.771.012,1.529,0,2.3,0h7.582c1.032,0,1.516.46,1.529,1.442q.019,1.119,0,2.237a1.258,1.258,0,0,1-1.429,1.4c-.994.012-1.989,0-2.983,0H16.717a1.377,1.377,0,0,0-1.429.783,1.28,1.28,0,0,0,1.318,1.777c1.84.012,3.692,0,5.531.012.211,0,.435.025.684.037,0,.46-.012.858,0,1.243a1.256,1.256,0,0,0,2.511.025A10.214,10.214,0,0,0,25.369,30.552Zm-1.255,7.619h-7.4a1.321,1.321,0,0,0-1.5,1.156c-.1.82.534,1.4,1.566,1.4H31.509c.92,0,1.516-.51,1.516-1.28s-.6-1.28-1.516-1.28Zm0,10.192h7.4a2.422,2.422,0,0,0,.609-.05,1.264,1.264,0,0,0-.423-2.474c-1.989-.012-3.978,0-5.966,0H16.842a2.845,2.845,0,0,0-.858.1,1.232,1.232,0,0,0-.771,1.342,1.269,1.269,0,0,0,1.318,1.081Z" transform="translate(209.023 -4685.064)"/>
</svg>
