<svg xmlns="http://www.w3.org/2000/svg" viewBox="434.493 -4686.55 66.818 66.805">
  <defs>
    <style>
      .cls-1 {
        fill: #1686d6;
      }
    </style>
  </defs>
  <g id="Group_3824" data-name="Group 3824" transform="translate(434.497 -4686.65)">
    <path id="Path_464" data-name="Path 464" class="cls-1" d="M64.32,51.16a5.482,5.482,0,0,1-.339-1.762A45.44,45.44,0,0,0,62.91,38.848,21.288,21.288,0,0,0,54.5,26.576a1.142,1.142,0,0,0-.809-.1c-1.475.339-2.951.731-4.426,1.044a.981.981,0,0,1-.744-.287c-.444-.444-.822-.953-1.292-1.514.94-.144,1.815-.235,2.663-.431,1.136-.261,2.259-.6,3.381-.94a1.009,1.009,0,0,0,.587-.522q1.723-4.6,3.381-9.23c.444-1.227.261-1.58-.94-2.024a9.636,9.636,0,0,0-5.418-.7,1.158,1.158,0,0,0-.379.1c-.836.587-1.449.17-2.167-.326a27.146,27.146,0,0,0-2.872-1.554c.457-1.319.966-2.781,1.462-4.269.47-1.423.2-2.024-1.175-2.611A37.586,37.586,0,0,0,33.144.218,6.048,6.048,0,0,1,32.5.1H29.893a1.785,1.785,0,0,0-1.214,2c.052.692.013,1.384.013,2.128-1.149-.235-2.193-.483-3.264-.653a13.372,13.372,0,0,0-6.945.457,1.605,1.605,0,0,0-1.071,2.415c.47,1.123,1.031,2.193,1.554,3.29a6.268,6.268,0,0,0,.3.561c-.614,0-1.149.026-1.684-.013a1.309,1.309,0,0,0-1.436.875c-.183.444-.366.875-.587,1.371q-.607-.1-1.253-.2a10.2,10.2,0,0,0-6.2,1.018.973.973,0,0,0-.483,1.423,24.226,24.226,0,0,0,1.541,3.081,24.9,24.9,0,0,1,3.146,5.9.884.884,0,0,0,.561.444c1.619.379,3.251.718,4.883,1.071.287.065.6.078.992.131-.509.653-.94,1.24-1.423,1.8a.643.643,0,0,1-.522.1c-1.462-.313-2.924-.627-4.374-1.005a1.035,1.035,0,0,0-1.057.2A20.22,20.22,0,0,0,4.592,36.707a40.951,40.951,0,0,0-1.71,10.2c-.078,1.449-.078,2.911-.144,4.374a1.731,1.731,0,0,1-.287.822,14.271,14.271,0,0,0-2.4,5.8c-.274,1.8.522,2.729,2.337,2.755.2,0,.392.013.587.013H7.882c-.157.757-.352,1.567-.483,2.389a5.525,5.525,0,0,0-.052,1.227A2.572,2.572,0,0,0,10.206,66.9a61.359,61.359,0,0,0,11.045-.836,8.6,8.6,0,0,1,2.1.3c1.919.2,3.851.47,5.77.5,3.695.052,7.389-.026,11.084-.091,1.175-.026,2.337-.274,3.5-.326.9-.039,1.8.065,2.7.091,3.538.118,7.076.274,10.614.352a2.246,2.246,0,0,0,2.454-2.454,16.443,16.443,0,0,0-.313-2.507,7.827,7.827,0,0,0-.222-.875c1.1,0,2.115.052,3.12-.013s2.024-.261,3.029-.418a2.1,2.1,0,0,0,1.723-1.658V57.922C65.991,55.664,65.13,53.418,64.32,51.16Zm-13.747,12.6c.131-.222.222-.352.313-.5a1.555,1.555,0,0,0-.287-1.906,1.466,1.466,0,0,0-1.971-.091c-1.8,1.645-4.06,2.05-6.332,2.259a117.147,117.147,0,0,1-16.163.131,15.01,15.01,0,0,1-5.261-1.162A6.608,6.608,0,0,1,18.261,60.6a1.528,1.528,0,0,0-2.246-.313,1.556,1.556,0,0,0-.144,2.272c.248.326.535.614.927,1.071-2.206.078-4.256.157-6.436.235.091-.522.144-.953.248-1.358a16.971,16.971,0,0,1,2.833-5.888,2.519,2.519,0,0,0,.535-1.554c-.013-3.094.091-6.175-.026-9.269A23.493,23.493,0,0,1,17.021,33.43a32.863,32.863,0,0,1,8.395-10.209.986.986,0,0,1,1.162-.144,15.9,15.9,0,0,0,7.99,1.031,1.493,1.493,0,0,0,1.292-1.671,1.614,1.614,0,0,0-1.749-1.384c-1.436-.013-2.859-.117-4.282-.183a1.008,1.008,0,0,1-.2-.026,3.1,3.1,0,0,1-2.977-2.729,20.6,20.6,0,0,0-3.5-7.585c-.718-1.057-1.371-2.167-2.037-3.264-.117-.2-.2-.418-.339-.7a14.846,14.846,0,0,1,5.757.366c.692.157,1.606.2,2,.64s.183,1.358.3,2.063c.3,1.736.653,3.46.966,5.183.091.509.157,1.031.209,1.554a1.541,1.541,0,0,0,1.749,1.514,1.52,1.52,0,0,0,1.319-1.841c-.326-1.906-.822-3.786-1.031-5.705-.261-2.324-.287-4.674-.418-6.985,2.05-.444,9.961,1.175,12.037,2.428-.4,1.123-.8,2.259-1.214,3.407-1.332,3.695-2.689,7.389-3.995,11.084-.431,1.2-.235,1.632.809,2.363A37.714,37.714,0,0,1,49.411,33.9a20.754,20.754,0,0,1,2.964,6.841,10.545,10.545,0,0,1,.17,1.815c.065,3.394.065,6.789.183,10.183a8.456,8.456,0,0,0,.627,2.637c.822,2.193,1.736,4.361,2.585,6.541a17.98,17.98,0,0,1,.5,1.841Z" transform="translate(0 0)"/>
    <path id="Path_465" data-name="Path 465" class="cls-1" d="M197.179,258.555a36.081,36.081,0,0,0-4.021-1.475c-1.358-.444-2.768-.744-4.126-1.2a1.806,1.806,0,0,1,.366-3.512,14.154,14.154,0,0,1,2.467-.144c2.128.065,2.716.6,3.081,2.676h4.844a5.933,5.933,0,0,0-2.076-4.974,6.6,6.6,0,0,0-4.086-1.488c-.444-.013-.627-.131-.6-.6s.013-.94.013-1.436h-3.107v2c-.77.117-1.462.183-2.141.326a6.5,6.5,0,0,0-5.287,5.64c-.248,2.951,1.1,5.052,4.165,6.254,1.266.5,2.624.744,3.93,1.149a35.93,35.93,0,0,1,3.669,1.292,1.886,1.886,0,0,1-.587,3.447,10.14,10.14,0,0,1-4.2.065,1.964,1.964,0,0,1-1.619-1.514c-.144-.535-.235-1.1-.353-1.645h-5.4a7.546,7.546,0,0,0,1.306,4.3,7.77,7.77,0,0,0,6.293,3.329v2.428h3.081v-2.415a11.019,11.019,0,0,0,5.118-1.684C201.148,267.276,201.748,260.7,197.179,258.555Z" transform="translate(-158.33 -214.145)"/>
  </g>
</svg>
