<svg xmlns="http://www.w3.org/2000/svg" viewBox="238.741 -4366.384 34.768 34.769">
  <defs>
    <style>
      .cls-1, .cls-4 {
        fill: none;
      }

      .cls-1 {
        stroke: #fff;
      }

      .cls-2 {
        fill: #fff;
      }

      .cls-3 {
        stroke: none;
      }
    </style>
  </defs>
  <g id="Group_3833" data-name="Group 3833" transform="translate(-487 -5028)">
    <g id="Ellipse_15" data-name="Ellipse 15" class="cls-1" transform="translate(725.741 661.616)">
      <circle class="cls-3" cx="17.384" cy="17.384" r="17.384"/>
      <circle class="cls-4" cx="17.384" cy="17.384" r="16.884"/>
    </g>
    <path id="Path_125" data-name="Path 125" class="cls-2" d="M18.9,1.792a7.437,7.437,0,0,1-2.2.6A3.825,3.825,0,0,0,18.385.282a7.724,7.724,0,0,1-2.425.928,3.817,3.817,0,0,0-6.6,2.611,3.9,3.9,0,0,0,.1.87A10.844,10.844,0,0,1,1.58.7,3.82,3.82,0,0,0,2.764,5.8a3.752,3.752,0,0,1-1.728-.48v.051A3.824,3.824,0,0,0,4.1,9.113a3.764,3.764,0,0,1-1.721.064,3.828,3.828,0,0,0,3.571,2.656,7.67,7.67,0,0,1-4.742,1.638A8.459,8.459,0,0,1,.3,13.42a10.83,10.83,0,0,0,5.856,1.715A10.8,10.8,0,0,0,17.028,4.262c0-.166-.006-.333-.013-.493A7.932,7.932,0,0,0,18.9,1.792Z" transform="translate(734.217 671.926)"/>
  </g>
</svg>
