<svg xmlns="http://www.w3.org/2000/svg" viewBox="-25.432 -4687.327 48.772 66.56">
  <defs>
    <style>
      .cls-1 {
        fill: #1686d6;
      }
    </style>
  </defs>
  <g id="Group_3821" data-name="Group 3821" transform="translate(-25.432 -4687.227)">
    <path id="Path_454" data-name="Path 454" class="cls-1" d="M19.1,44.278c-1.375-.094-1.7-.445-1.7-1.779V37.378c0-1.24.4-1.631,1.671-1.631h5.188c1.145,0,1.469.256,1.711,1.388a18.007,18.007,0,0,1,17.317-.364V1.962A1.847,1.847,0,0,0,41.2-.1H2.183A1.923,1.923,0,0,0,0,2.1V59.3c0,1.685.633,2.318,2.318,2.318H19.5A18.032,18.032,0,0,1,19.1,44.278Zm6.779-14.069a1.2,1.2,0,0,1-1.321,1.348q-2.931.02-5.862,0a1.221,1.221,0,0,1-1.307-1.321q-.02-2.931,0-5.862a1.212,1.212,0,0,1,1.375-1.307c.97-.013,1.927,0,2.9,0h0c.97,0,1.927-.013,2.9,0A1.192,1.192,0,0,1,25.875,24.4C25.888,26.341,25.888,28.281,25.875,30.208Zm12.681-.04a1.237,1.237,0,0,1-1.361,1.388c-1.914.013-3.814.013-5.727,0a1.242,1.242,0,0,1-1.4-1.361c-.013-1.927-.013-3.854,0-5.795A1.23,1.23,0,0,1,31.4,23.052q2.931-.02,5.862,0a1.188,1.188,0,0,1,1.294,1.307c.013.984,0,1.981,0,2.965C38.569,28.281,38.569,29.224,38.556,30.168ZM13.207,42.863a1.232,1.232,0,0,1-1.375,1.375c-1.927.013-3.854.013-5.795,0a1.2,1.2,0,0,1-1.321-1.294c-.013-1.981-.013-3.949,0-5.93A1.192,1.192,0,0,1,6,35.747c1.981-.013,3.949-.013,5.93,0a1.188,1.188,0,0,1,1.28,1.321c.013.984,0,1.981,0,2.965C13.207,40.976,13.22,41.919,13.207,42.863Zm0,12.668A1.228,1.228,0,0,1,11.846,56.9c-1.927.013-3.854.013-5.795,0a1.223,1.223,0,0,1-1.334-1.348c-.013-1.927-.013-3.854,0-5.795a1.217,1.217,0,0,1,1.334-1.348c1.927-.013,3.854-.013,5.795,0A1.237,1.237,0,0,1,13.207,49.8c.013.97,0,1.927,0,2.9C13.207,53.644,13.22,54.587,13.207,55.53Zm0-25.3a1.223,1.223,0,0,1-1.348,1.334c-1.927.013-3.854.013-5.795,0a1.23,1.23,0,0,1-1.348-1.334c-.013-1.927-.013-3.854,0-5.795A1.226,1.226,0,0,1,6.1,23.079c.97-.013,1.927,0,2.9,0,.943,0,1.887-.013,2.83,0a1.226,1.226,0,0,1,1.375,1.375Q13.227,27.324,13.207,30.235ZM7.695,18.484A2.848,2.848,0,0,1,4.73,15.506c-.013-2.655-.013-5.3,0-7.951A2.882,2.882,0,0,1,7.735,4.6h27.8a2.858,2.858,0,0,1,3.032,2.978c.013,2.655.013,5.3,0,7.951a2.848,2.848,0,0,1-2.992,2.951Q21.63,18.5,7.695,18.484Z" transform="translate(0 0)"/>
    <path id="Path_455" data-name="Path 455" class="cls-1" d="M170.271,288.1A13.861,13.861,0,1,0,184,302.191,13.878,13.878,0,0,0,170.271,288.1Zm8.328,16.064h-6.213v6.253h-4.393v-6.226H161.7v-4.434h6.24v-6.266h4.434v6.253H178.6Z" transform="translate(-135.233 -249.356)"/>
    <path id="Path_456" data-name="Path 456" class="cls-1" d="M217.381,61.18q2.325.02,4.649,0c.809-.013,1.132-.337,1.145-1.159.013-1.145,0-2.291,0-3.436,0-1.172.013-2.331,0-3.5-.013-.809-.337-1.145-1.145-1.145q-2.325-.02-4.649,0c-.809,0-1.145.337-1.145,1.159-.013,2.3-.013,4.622,0,6.927C216.249,60.856,216.572,61.18,217.381,61.18Zm.741-7.318h3.153v5.444h-3.153Z" transform="translate(-187.086 -45.014)"/>
  </g>
</svg>
